<svg xmlns="http://www.w3.org/2000/svg" xmlns:xlink="http://www.w3.org/1999/xlink" width="500" zoomAndPan="magnify" viewBox="0 0 375 374.999991" height="500" preserveAspectRatio="xMidYMid meet" version="1.0"><defs><clipPath id="759aa5b517"><path d="M 69.308594 237.367188 L 118.808594 237.367188 L 118.808594 286.867188 L 69.308594 286.867188 Z M 69.308594 237.367188 " clip-rule="nonzero"/></clipPath><clipPath id="5b20c71294"><path d="M 118.664062 91.445312 L 176.671875 91.445312 L 176.671875 285 L 118.664062 285 Z M 118.664062 91.445312 " clip-rule="nonzero"/></clipPath><clipPath id="0669ffd966"><path d="M 148.328125 91.445312 L 118.664062 91.445312 L 146.789062 285.140625 L 176.453125 285.140625 L 148.328125 91.445312 " clip-rule="nonzero"/></clipPath><clipPath id="c3ce509d0a"><path d="M 206.691406 91.445312 L 236.925781 91.445312 L 236.925781 286.722656 L 206.691406 286.722656 Z M 206.691406 91.445312 " clip-rule="nonzero"/></clipPath><clipPath id="c15ac6d19b"><path d="M 267.164062 91 L 297.75 91 L 297.75 152.699219 L 267.164062 152.699219 Z M 267.164062 91 " clip-rule="nonzero"/></clipPath><clipPath id="4b98bd29d4"><path d="M 295.910156 132.269531 C 297.019531 129.125 297.75 125.554688 297.75 122.050781 C 297.75 118.546875 297.125 115.175781 296.015625 112.066406 C 295.980469 112 295.980469 111.933594 295.945312 111.867188 C 291.507812 100.199219 279.792969 91.601562 267.164062 91.4375 L 267.164062 152.699219 C 279.863281 152.535156 291.578125 144.070312 295.910156 132.269531 " clip-rule="nonzero"/></clipPath><clipPath id="fdfb797440"><path d="M 267.511719 172.476562 L 292.722656 172.476562 L 292.722656 287 L 267.511719 287 Z M 267.511719 172.476562 " clip-rule="nonzero"/></clipPath></defs><g clip-path="url(#759aa5b517)"><path fill="#38b6ff" d="M 118.808594 262.117188 C 118.808594 262.925781 118.769531 263.734375 118.6875 264.542969 C 118.609375 265.347656 118.488281 266.148438 118.332031 266.945312 C 118.171875 267.738281 117.976562 268.523438 117.742188 269.300781 C 117.507812 270.078125 117.234375 270.839844 116.921875 271.585938 C 116.613281 272.335938 116.265625 273.070312 115.886719 273.785156 C 115.503906 274.5 115.085938 275.191406 114.636719 275.867188 C 114.1875 276.539062 113.703125 277.191406 113.191406 277.816406 C 112.675781 278.445312 112.132812 279.042969 111.558594 279.617188 C 110.984375 280.191406 110.386719 280.734375 109.757812 281.25 C 109.132812 281.761719 108.480469 282.246094 107.808594 282.695312 C 107.132812 283.144531 106.4375 283.5625 105.722656 283.945312 C 105.007812 284.324219 104.277344 284.671875 103.527344 284.980469 C 102.78125 285.292969 102.019531 285.566406 101.242188 285.800781 C 100.464844 286.035156 99.679688 286.234375 98.886719 286.390625 C 98.089844 286.550781 97.289062 286.667969 96.484375 286.746094 C 95.675781 286.828125 94.867188 286.867188 94.058594 286.867188 C 93.246094 286.867188 92.4375 286.828125 91.632812 286.746094 C 90.824219 286.667969 90.023438 286.550781 89.230469 286.390625 C 88.433594 286.234375 87.648438 286.035156 86.871094 285.800781 C 86.097656 285.566406 85.335938 285.292969 84.585938 284.980469 C 83.835938 284.671875 83.105469 284.324219 82.390625 283.945312 C 81.675781 283.5625 80.980469 283.144531 80.308594 282.695312 C 79.632812 282.246094 78.984375 281.761719 78.355469 281.25 C 77.730469 280.734375 77.128906 280.191406 76.554688 279.617188 C 75.984375 279.042969 75.441406 278.445312 74.925781 277.816406 C 74.410156 277.191406 73.929688 276.539062 73.480469 275.867188 C 73.027344 275.191406 72.613281 274.5 72.230469 273.785156 C 71.847656 273.070312 71.5 272.335938 71.191406 271.585938 C 70.882812 270.839844 70.609375 270.078125 70.375 269.300781 C 70.136719 268.523438 69.941406 267.738281 69.78125 266.945312 C 69.625 266.148438 69.507812 265.347656 69.425781 264.542969 C 69.347656 263.734375 69.308594 262.925781 69.308594 262.117188 C 69.308594 261.304688 69.347656 260.496094 69.425781 259.691406 C 69.507812 258.882812 69.625 258.082031 69.78125 257.289062 C 69.941406 256.492188 70.136719 255.707031 70.375 254.933594 C 70.609375 254.15625 70.882812 253.394531 71.191406 252.644531 C 71.5 251.894531 71.847656 251.164062 72.230469 250.449219 C 72.613281 249.734375 73.027344 249.039062 73.480469 248.367188 C 73.929688 247.691406 74.410156 247.042969 74.925781 246.414062 C 75.441406 245.789062 75.984375 245.1875 76.554688 244.617188 C 77.128906 244.042969 77.730469 243.5 78.355469 242.984375 C 78.984375 242.46875 79.632812 241.988281 80.308594 241.539062 C 80.980469 241.085938 81.675781 240.671875 82.390625 240.289062 C 83.105469 239.90625 83.835938 239.558594 84.585938 239.25 C 85.335938 238.941406 86.097656 238.667969 86.871094 238.433594 C 87.648438 238.195312 88.433594 238 89.230469 237.84375 C 90.023438 237.683594 90.824219 237.566406 91.632812 237.484375 C 92.4375 237.40625 93.246094 237.367188 94.058594 237.367188 C 94.867188 237.367188 95.675781 237.40625 96.484375 237.484375 C 97.289062 237.566406 98.089844 237.683594 98.886719 237.84375 C 99.679688 238 100.464844 238.195312 101.242188 238.433594 C 102.019531 238.667969 102.78125 238.941406 103.527344 239.25 C 104.277344 239.558594 105.007812 239.90625 105.722656 240.289062 C 106.4375 240.671875 107.132812 241.085938 107.808594 241.539062 C 108.480469 241.988281 109.132812 242.46875 109.757812 242.984375 C 110.386719 243.5 110.984375 244.042969 111.558594 244.617188 C 112.132812 245.1875 112.675781 245.789062 113.191406 246.414062 C 113.703125 247.042969 114.1875 247.691406 114.636719 248.367188 C 115.085938 249.039062 115.503906 249.734375 115.886719 250.449219 C 116.265625 251.164062 116.613281 251.894531 116.921875 252.644531 C 117.234375 253.394531 117.507812 254.15625 117.742188 254.933594 C 117.976562 255.707031 118.171875 256.492188 118.332031 257.289062 C 118.488281 258.082031 118.609375 258.882812 118.6875 259.691406 C 118.769531 260.496094 118.808594 261.304688 118.808594 262.117188 Z M 118.808594 262.117188 " fill-opacity="1" fill-rule="nonzero"/></g><g clip-path="url(#5b20c71294)"><g clip-path="url(#0669ffd966)"><path fill="#38b6ff" d="M 118.664062 91.445312 L 176.671875 91.445312 L 176.671875 284.804688 L 118.664062 284.804688 Z M 118.664062 91.445312 " fill-opacity="1" fill-rule="nonzero"/></g></g><g clip-path="url(#c3ce509d0a)"><path fill="#38b6ff" d="M 206.691406 91.445312 L 236.574219 91.445312 L 236.574219 286.5625 L 206.691406 286.5625 Z M 206.691406 91.445312 " fill-opacity="1" fill-rule="nonzero"/></g><g clip-path="url(#c15ac6d19b)"><g clip-path="url(#4b98bd29d4)"><path fill="#38b6ff" d="M 267.164062 152.699219 L 267.164062 91.53125 L 297.75 91.53125 L 297.75 152.699219 Z M 267.164062 152.699219 " fill-opacity="1" fill-rule="nonzero"/></g></g><g clip-path="url(#fdfb797440)"><path fill="#38b6ff" d="M 267.511719 172.476562 L 292.121094 172.476562 L 292.121094 286.734375 L 267.511719 286.734375 Z M 267.511719 172.476562 " fill-opacity="1" fill-rule="nonzero"/></g></svg>